PathFileType	4	(x/y/z)	S05_BK_Cal_T01
DataRate	CameraRate	NumFrames	NumMarkers	Units	OrigDataRate	OrigDataStartFrame	OrigNumFrames
240	240	6	50	mm	240	1501	2400
Frame#	Time	Sternum			R.Acromium			L.Acromium			Top.Head			R.ASIS			L.ASIS			R.PSIS			L.PSIS			R.Great.Tro			L.Great.Tro			R.Iliac.Crest			L.Iliac.Crest			V.Sacral			R.Thigh.Upper.Post			R.Thigh.Lower.Ant			R.Thigh.Lower.Post			R.Thigh.Upper.Ant			R.Knee.Lat			R.Knee.Med			R.Shank.Upper.Post			R.Shank.Lower.Ant			R.Shank.Lower.Post			R.Shank.Upper.Ant			R.Ankle.Lat			R.Ankle.Med			R.Heel.Upper			R.Heel.Med			R.Heel.Lat			R.Toe.Lat			R.Toe.Med			R.Toe.Tip			L.Thigh.Upper.Post			L.Thigh.Lower.Ant			L.Thigh.Lower.Post			L.Thigh.Upper.Ant			L.Knee.Lat			L.Shank.Upper.Post			L.Shank.Lower.Ant			L.Shank.Lower.Post			L.Shank.Upper.Ant			L.Ankle.Lat			L.Ankle.Med			L.Heel.Upper			L.Heel.Med			L.Heel.Lat			L.Toe.Lat			L.Toe.Med			L.Toe.Tip			Cervical.Spine			Back			
		X1	Y1	Z1	X2	Y2	Z2	X3	Y3	Z3	X4	Y4	Z4	X5	Y5	Z5	X6	Y6	Z6	X7	Y7	Z7	X8	Y8	Z8	X9	Y9	Z9	X10	Y10	Z10	X11	Y11	Z11	X12	Y12	Z12	X13	Y13	Z13	X14	Y14	Z14	X15	Y15	Z15	X16	Y16	Z16	X17	Y17	Z17	X18	Y18	Z18	X19	Y19	Z19	X20	Y20	Z20	X21	Y21	Z21	X22	Y22	Z22	X23	Y23	Z23	X24	Y24	Z24	X25	Y25	Z25	X26	Y26	Z26	X27	Y27	Z27	X28	Y28	Z28	X29	Y29	Z29	X30	Y30	Z30	X31	Y31	Z31	X32	Y32	Z32	X33	Y33	Z33	X34	Y34	Z34	X35	Y35	Z35	X36	Y36	Z36	X37	Y37	Z37	X38	Y38	Z38	X39	Y39	Z39	X40	Y40	Z40	X41	Y41	Z41	X42	Y42	Z42	X43	Y43	Z43	X44	Y44	Z44	X45	Y45	Z45	X46	Y46	Z46	X47	Y47	Z47	X48	Y48	Z48	X49	Y49	Z49	X50	Y50	Z50	

1501	6.25	510.81	1241.8	325.34	423.95	1496.9	483.38	408.35	1505.7	143.43	427.31	1819	319.94	433.91	989.59	454.34	445.79	991.45	204.65	237.03	1014.6	359.55	242.44	1015.4	267.05	352.52	912.61	515.48	363.21	914.53	124.88	354.17	1077.9	488.23	365.49	1073.1	155.78	227.14	976.79	325.39	446.41	704.6	532.21	513.81	642.95	486.44	453.98	615.09	517.37	501.8	731.14	500.94	464.86	519.92	506.24	470.07	495.13	378.27	347.83	299.34	516.83	395.72	222.47	514.66	331.92	224.21	505.31	413.06	298.44	524.35	355.27	123.63	506.82	361.27	143.47	412.84	273.38	75.304	455.91	281.47	41.543	428.96	283.6	48.904	493.97	452	36.839	534.59	478.92	40.825	412.68	545.98	57.33	453.61	415.81	680.89	113.32	509.44	624.95	132.98	445.85	590.56	124.47	487.35	712.96	122.02	469.45	504.82	125.21	368.58	327.89	117.4	421.99	256.69	119.47	351.47	257.37	131.72	434.22	326.48	109.63	345.55	118.04	134.83	381.85	125.65	222.56	278.74	68.522	186.33	291.12	43.646	218.24	281.35	41.035	157.36	462.31	39.166	98.097	488.44	50.955	216.67	551.24	59.879	159.74	363.26	1551.4	321.68	250.79	1278.5	322.85
1502	6.2542	510.82	1241.8	325.35	423.95	1497	483.37	408.36	1505.7	143.43	427.33	1819	319.92	433.91	989.59	454.34	445.8	991.45	204.66	237.04	1014.6	359.55	242.45	1015.4	267.06	352.52	912.61	515.49	363.22	914.53	124.89	354.18	1077.9	488.24	365.5	1073.1	155.78	227.14	976.8	325.39	446.42	704.6	532.22	513.81	642.94	486.44	453.99	615.1	517.38	501.8	731.14	500.94	464.86	519.92	506.25	470.07	495.13	378.28	347.82	299.34	516.83	395.72	222.47	514.66	331.92	224.21	505.31	413.05	298.44	524.35	355.27	123.64	506.82	361.27	143.47	412.84	273.38	75.305	455.91	281.47	41.542	428.96	283.6	48.904	493.97	452	36.84	534.59	478.92	40.825	412.69	545.98	57.33	453.61	415.82	680.89	113.32	509.45	624.95	132.98	445.86	590.57	124.47	487.36	712.96	122.03	469.46	504.82	125.21	368.59	327.89	117.4	422	256.69	119.48	351.47	257.37	131.73	434.23	326.48	109.62	345.55	118.04	134.83	381.85	125.65	222.56	278.74	68.523	186.33	291.12	43.646	218.24	281.35	41.034	157.37	462.31	39.166	98.097	488.44	50.954	216.67	551.24	59.877	159.74	363.26	1551.4	321.67	250.8	1278.5	322.85
1503	6.2583	510.83	1241.8	325.35	423.96	1497	483.37	408.38	1505.7	143.42	427.36	1819	319.9	433.92	989.59	454.35	445.81	991.45	204.66	237.04	1014.7	359.56	242.46	1015.4	267.07	352.53	912.61	515.49	363.22	914.53	124.9	354.19	1077.9	488.24	365.51	1073.1	155.79	227.15	976.8	325.4	446.43	704.61	532.22	513.81	642.94	486.44	453.99	615.1	517.38	501.81	731.14	500.94	464.86	519.92	506.25	470.07	495.13	378.28	347.82	299.34	516.83	395.72	222.47	514.66	331.92	224.21	505.32	413.05	298.44	524.36	355.26	123.64	506.82	361.27	143.48	412.84	273.38	75.306	455.91	281.47	41.542	428.96	283.6	48.905	493.97	452	36.841	534.59	478.92	40.826	412.69	545.98	57.33	453.61	415.82	680.9	113.32	509.46	624.95	132.98	445.86	590.57	124.47	487.37	712.96	122.03	469.46	504.82	125.21	368.59	327.89	117.4	422	256.69	119.48	351.48	257.38	131.73	434.23	326.48	109.62	345.55	118.04	134.83	381.85	125.65	222.56	278.74	68.525	186.33	291.12	43.647	218.24	281.35	41.033	157.37	462.31	39.166	98.097	488.44	50.954	216.67	551.24	59.876	159.74	363.27	1551.4	321.66	250.81	1278.5	322.85
1504	6.2625	510.84	1241.8	325.36	423.96	1497	483.36	408.39	1505.7	143.42	427.39	1819	319.88	433.92	989.59	454.36	445.81	991.45	204.67	237.05	1014.7	359.57	242.46	1015.4	267.08	352.53	912.62	515.5	363.23	914.53	124.9	354.2	1077.9	488.24	365.51	1073.1	155.79	227.15	976.81	325.41	446.43	704.61	532.22	513.82	642.93	486.43	454	615.1	517.39	501.81	731.14	500.94	464.86	519.92	506.26	470.07	495.13	378.29	347.82	299.35	516.83	395.72	222.47	514.66	331.92	224.21	505.32	413.05	298.44	524.36	355.27	123.64	506.83	361.27	143.48	412.84	273.38	75.307	455.91	281.47	41.542	428.96	283.6	48.905	493.97	452	36.842	534.6	478.92	40.827	412.69	545.98	57.329	453.61	415.83	680.9	113.32	509.46	624.95	132.98	445.87	590.57	124.47	487.37	712.97	122.03	469.46	504.83	125.21	368.59	327.89	117.4	422	256.69	119.48	351.48	257.38	131.73	434.23	326.48	109.62	345.55	118.04	134.83	381.85	125.65	222.56	278.74	68.526	186.33	291.12	43.648	218.24	281.35	41.031	157.37	462.31	39.166	98.096	488.44	50.954	216.67	551.24	59.875	159.73	363.28	1551.4	321.65	250.82	1278.5	322.85
1505	6.2667	510.86	1241.8	325.36	423.97	1497	483.36	408.4	1505.7	143.41	427.41	1819	319.86	433.93	989.59	454.36	445.82	991.45	204.67	237.06	1014.7	359.57	242.47	1015.4	267.08	352.54	912.62	515.5	363.23	914.53	124.91	354.21	1077.9	488.25	365.52	1073.1	155.79	227.16	976.81	325.41	446.44	704.61	532.22	513.82	642.93	486.43	454.01	615.1	517.39	501.82	731.15	500.94	464.87	519.92	506.26	470.08	495.14	378.29	347.82	299.35	516.84	395.72	222.47	514.67	331.92	224.21	505.32	413.05	298.44	524.36	355.27	123.64	506.83	361.27	143.48	412.84	273.38	75.308	455.91	281.47	41.542	428.96	283.6	48.906	493.97	452	36.842	534.6	478.92	40.828	412.69	545.98	57.329	453.62	415.84	680.91	113.33	509.47	624.96	132.98	445.87	590.58	124.47	487.38	712.97	122.04	469.47	504.83	125.21	368.6	327.89	117.4	422	256.69	119.48	351.48	257.38	131.73	434.23	326.48	109.62	345.55	118.04	134.82	381.85	125.65	222.56	278.74	68.527	186.33	291.12	43.648	218.24	281.35	41.03	157.37	462.31	39.166	98.096	488.44	50.954	216.67	551.24	59.874	159.73	363.29	1551.4	321.64	250.83	1278.5	322.85
1506	6.2708	510.87	1241.8	325.37	423.98	1497	483.35	408.42	1505.7	143.41	427.43	1819	319.84	433.94	989.59	454.37	445.82	991.45	204.68	237.06	1014.7	359.58	242.48	1015.4	267.09	352.54	912.62	515.5	363.23	914.53	124.92	354.22	1077.9	488.25	365.53	1073.1	155.8	227.16	976.82	325.42	446.45	704.62	532.23	513.83	642.93	486.43	454.02	615.1	517.4	501.82	731.15	500.94	464.87	519.91	506.27	470.08	495.14	378.3	347.83	299.35	516.84	395.72	222.47	514.67	331.92	224.21	505.32	413.06	298.44	524.37	355.27	123.64	506.83	361.27	143.48	412.84	273.38	75.309	455.91	281.47	41.543	428.96	283.6	48.907	493.97	452	36.843	534.6	478.92	40.829	412.68	545.98	57.328	453.62	415.84	680.91	113.33	509.47	624.96	132.99	445.88	590.58	124.47	487.39	712.97	122.04	469.47	504.83	125.22	368.6	327.89	117.4	422.01	256.69	119.48	351.48	257.38	131.73	434.23	326.48	109.62	345.55	118.04	134.82	381.85	125.64	222.56	278.74	68.528	186.33	291.12	43.648	218.24	281.35	41.028	157.37	462.31	39.167	98.095	488.44	50.954	216.67	551.24	59.874	159.73	363.3	1551.4	321.63	250.84	1278.5	322.85
